<svg xmlns="http://www.w3.org/2000/svg" viewBox="0 0 400 400">
  <defs>
    <linearGradient id="bg2" x1="0%" y1="0%" x2="100%" y2="100%">
      <stop offset="0%" style="stop-color:#5c3d2e"/>
      <stop offset="100%" style="stop-color:#8b6914"/>
    </linearGradient>
  </defs>
  <rect width="400" height="400" rx="20" fill="url(#bg2)"/>
  <!-- Table -->
  <rect x="60" y="140" width="200" height="12" rx="3" fill="#d4a56a"/>
  <rect x="75" y="152" width="10" height="100" rx="2" fill="#c49660"/>
  <rect x="235" y="152" width="10" height="100" rx="2" fill="#c49660"/>
  <!-- Chair -->
  <rect x="270" y="130" width="80" height="8" rx="3" fill="#d4a56a"/>
  <rect x="278" y="138" width="8" height="80" rx="2" fill="#c49660"/>
  <rect x="334" y="138" width="8" height="80" rx="2" fill="#c49660"/>
  <rect x="270" y="90" width="8" height="48" rx="2" fill="#c49660"/>
  <rect x="342" y="90" width="8" height="48" rx="2" fill="#c49660"/>
  <rect x="270" y="86" width="80" height="8" rx="3" fill="#d4a56a"/>
  <!-- Configurable gear icon -->
  <circle cx="180" cy="310" r="30" stroke="#ffffff80" stroke-width="4" fill="none"/>
  <circle cx="180" cy="310" r="10" fill="#ffffff60"/>
  <g stroke="#ffffff80" stroke-width="4">
    <line x1="180" y1="275" x2="180" y2="285"/>
    <line x1="180" y1="335" x2="180" y2="345"/>
    <line x1="145" y1="310" x2="155" y2="310"/>
    <line x1="205" y1="310" x2="215" y2="310"/>
  </g>
  <!-- Bundle badge -->
  <rect x="240" y="300" width="140" height="50" rx="25" fill="#FF9800"/>
  <text x="310" y="332" text-anchor="middle" fill="white" font-family="Arial,sans-serif" font-size="18" font-weight="bold">KONFIG.</text>
</svg>
